<svg width="48" height="48" viewBox="0 0 48 48" fill="none" xmlns="http://www.w3.org/2000/svg">
<g clip-path="url(#clip0_1_5)">
<path d="M47.6938 15.6522L12.7999 30.5113C9.90596 31.7356 7.47582 32.3478 5.50944 32.3478C3.28336 32.3478 1.66944 31.5687 0.667703 30.0104C0.0369788 29.0087 -0.148528 27.738 0.111182 26.1982C0.370892 24.6585 1.05727 23.0168 2.17031 21.273C3.09785 19.8632 4.61901 18.0081 6.73379 15.7078C5.99176 16.8951 5.47234 18.1194 5.17553 19.3809C4.61901 21.7553 5.11988 23.4991 6.67814 24.6122C7.42017 25.1316 8.44046 25.3913 9.73901 25.3913C10.7778 25.3913 11.9465 25.2243 13.2451 24.8904L47.6938 15.6522Z" fill="black"/>
</g>
<defs>
<clipPath id="clip0_1_5">
<rect width="48" height="48" fill="white"/>
</clipPath>
</defs>
</svg>
